<mxfile host="app.diagrams.net" agent="Mozilla/5.0 (Windows NT 10.0; Win64; x64) AppleWebKit/537.36 (KHTML, like Gecko) Chrome/135.0.0.0 Safari/537.36" version="26.2.14">
  <diagram name="第 1 页" id="3OYtOH17SaXc34n-5f1R">
    <mxGraphModel dx="741" dy="528" grid="1" gridSize="10" guides="1" tooltips="1" connect="1" arrows="1" fold="1" page="1" pageScale="1" pageWidth="827" pageHeight="1169" math="0" shadow="0">
      <root>
        <mxCell id="0" />
        <mxCell id="1" parent="0" />
        <mxCell id="RnAIAhMv7dYPZ12rXAy4-9" style="rounded=0;orthogonalLoop=1;jettySize=auto;html=1;exitX=1;exitY=0;exitDx=0;exitDy=0;endArrow=none;startFill=0;" edge="1" parent="1" source="RnAIAhMv7dYPZ12rXAy4-1" target="RnAIAhMv7dYPZ12rXAy4-7">
          <mxGeometry relative="1" as="geometry" />
        </mxCell>
        <mxCell id="RnAIAhMv7dYPZ12rXAy4-10" style="rounded=0;orthogonalLoop=1;jettySize=auto;html=1;exitX=1;exitY=1;exitDx=0;exitDy=0;endArrow=none;startFill=0;" edge="1" parent="1" source="RnAIAhMv7dYPZ12rXAy4-1" target="RnAIAhMv7dYPZ12rXAy4-8">
          <mxGeometry relative="1" as="geometry" />
        </mxCell>
        <mxCell id="RnAIAhMv7dYPZ12rXAy4-13" style="rounded=0;orthogonalLoop=1;jettySize=auto;html=1;exitX=0.5;exitY=0;exitDx=0;exitDy=0;endArrow=none;startFill=0;" edge="1" parent="1" source="RnAIAhMv7dYPZ12rXAy4-1" target="RnAIAhMv7dYPZ12rXAy4-4">
          <mxGeometry relative="1" as="geometry" />
        </mxCell>
        <mxCell id="RnAIAhMv7dYPZ12rXAy4-1" value="扫描IP端口" style="rounded=0;whiteSpace=wrap;html=1;" vertex="1" parent="1">
          <mxGeometry x="320" y="220" width="120" height="70" as="geometry" />
        </mxCell>
        <mxCell id="RnAIAhMv7dYPZ12rXAy4-4" value="ID主键" style="ellipse;whiteSpace=wrap;html=1;" vertex="1" parent="1">
          <mxGeometry x="290" y="90" width="100" height="60" as="geometry" />
        </mxCell>
        <mxCell id="RnAIAhMv7dYPZ12rXAy4-5" value="协议类型&lt;span style=&quot;color: rgba(0, 0, 0, 0); font-family: monospace; font-size: 0px; text-align: start; text-wrap-mode: nowrap;&quot;&gt;%3CmxGraphModel%3E%3Croot%3E%3CmxCell%20id%3D%220%22%2F%3E%3CmxCell%20id%3D%221%22%20parent%3D%220%22%2F%3E%3CmxCell%20id%3D%222%22%20value%3D%22%22%20style%3D%22ellipse%3BwhiteSpace%3Dwrap%3Bhtml%3D1%3B%22%20vertex%3D%221%22%20parent%3D%221%22%3E%3CmxGeometry%20x%3D%22180%22%20y%3D%22110%22%20width%3D%22100%22%20height%3D%2260%22%20as%3D%22geometry%22%2F%3E%3C%2FmxCell%3E%3C%2Froot%3E%3C%2FmxGraphModel%3E&lt;/span&gt;" style="ellipse;whiteSpace=wrap;html=1;" vertex="1" parent="1">
          <mxGeometry x="230" y="340" width="100" height="60" as="geometry" />
        </mxCell>
        <mxCell id="RnAIAhMv7dYPZ12rXAy4-6" value="服务名称" style="ellipse;whiteSpace=wrap;html=1;" vertex="1" parent="1">
          <mxGeometry x="170" y="200" width="100" height="60" as="geometry" />
        </mxCell>
        <mxCell id="RnAIAhMv7dYPZ12rXAy4-7" value="端口号" style="ellipse;whiteSpace=wrap;html=1;" vertex="1" parent="1">
          <mxGeometry x="500" y="150" width="100" height="60" as="geometry" />
        </mxCell>
        <mxCell id="RnAIAhMv7dYPZ12rXAy4-8" value="端口状态" style="ellipse;whiteSpace=wrap;html=1;" vertex="1" parent="1">
          <mxGeometry x="470" y="350" width="100" height="60" as="geometry" />
        </mxCell>
        <mxCell id="RnAIAhMv7dYPZ12rXAy4-11" style="rounded=0;orthogonalLoop=1;jettySize=auto;html=1;exitX=0;exitY=1;exitDx=0;exitDy=0;entryX=0.633;entryY=0.069;entryDx=0;entryDy=0;entryPerimeter=0;endArrow=none;startFill=0;" edge="1" parent="1" source="RnAIAhMv7dYPZ12rXAy4-1" target="RnAIAhMv7dYPZ12rXAy4-5">
          <mxGeometry relative="1" as="geometry" />
        </mxCell>
        <mxCell id="RnAIAhMv7dYPZ12rXAy4-12" style="rounded=0;orthogonalLoop=1;jettySize=auto;html=1;exitX=0;exitY=0;exitDx=0;exitDy=0;entryX=0.907;entryY=0.307;entryDx=0;entryDy=0;entryPerimeter=0;endArrow=none;startFill=0;" edge="1" parent="1" source="RnAIAhMv7dYPZ12rXAy4-1" target="RnAIAhMv7dYPZ12rXAy4-6">
          <mxGeometry relative="1" as="geometry" />
        </mxCell>
      </root>
    </mxGraphModel>
  </diagram>
</mxfile>
